<svg width="2105" height="1008" viewBox="0 0 215 108" fill="none" xmlns="http://www.w3.org/2000/svg">
<g filter="url(#filter0_d_1_8)">
<circle cx="53" cy="55" r="20" fill="#3AD3CD"/>
<path d="M44.6513 67V45.1818H59.8643V49.4645H49.9247V53.9389H59.0866V58.2322H49.9247V62.7173H59.8643V67H44.6513Z" fill="white"/>
<path d="M82.7159 67H74.6513V45.1818H82.7053C84.9283 45.1818 86.8423 45.6186 88.4474 46.4922C90.0597 47.3587 91.3026 48.6087 92.1761 50.2422C93.0497 51.8686 93.4865 53.8146 93.4865 56.0803C93.4865 58.353 93.0497 60.3061 92.1761 61.9396C91.3097 63.5732 90.0703 64.8267 88.4581 65.7003C86.8459 66.5668 84.9318 67 82.7159 67ZM79.9247 62.5043H82.5135C83.7351 62.5043 84.7685 62.2983 85.6136 61.8864C86.4659 61.4673 87.1087 60.7891 87.5419 59.8516C87.9822 58.907 88.2024 57.6499 88.2024 56.0803C88.2024 54.5107 87.9822 53.2607 87.5419 52.3303C87.1016 51.3928 86.4517 50.718 85.5923 50.3061C84.7401 49.8871 83.6889 49.6776 82.4389 49.6776H79.9247V62.5043ZM109.765 45.1818H115.028V59.255C115.028 60.8814 114.641 62.2983 113.866 63.5057C113.092 64.706 112.013 65.6364 110.628 66.2969C109.243 66.9503 107.634 67.277 105.802 67.277C103.948 67.277 102.329 66.9503 100.944 66.2969C99.5589 65.6364 98.483 64.706 97.7159 63.5057C96.9489 62.2983 96.5653 60.8814 96.5653 59.255V45.1818H101.839V58.7969C101.839 59.5497 102.002 60.2209 102.329 60.8104C102.663 61.3999 103.128 61.8615 103.724 62.1953C104.321 62.5291 105.013 62.696 105.802 62.696C106.59 62.696 107.279 62.5291 107.869 62.1953C108.465 61.8615 108.93 61.3999 109.264 60.8104C109.598 60.2209 109.765 59.5497 109.765 58.7969V45.1818ZM118.333 67V45.1818H123.606V53.9389H132.204V45.1818H137.466V67H132.204V58.2322H123.606V67H118.333ZM153.974 45.1818H159.237V59.255C159.237 60.8814 158.85 62.2983 158.075 63.5057C157.301 64.706 156.222 65.6364 154.837 66.2969C153.452 66.9503 151.843 67.277 150.011 67.277C148.157 67.277 146.538 66.9503 145.153 66.2969C143.768 65.6364 142.692 64.706 141.925 63.5057C141.158 62.2983 140.774 60.8814 140.774 59.255V45.1818H146.048V58.7969C146.048 59.5497 146.211 60.2209 146.538 60.8104C146.872 61.3999 147.337 61.8615 147.933 62.1953C148.53 62.5291 149.222 62.696 150.011 62.696C150.799 62.696 151.488 62.5291 152.078 62.1953C152.674 61.8615 153.139 61.3999 153.473 60.8104C153.807 60.2209 153.974 59.5497 153.974 58.7969V45.1818ZM162.542 67V45.1818H171.64C173.273 45.1818 174.641 45.4126 175.741 45.8743C176.849 46.3359 177.68 46.9822 178.234 47.8132C178.795 48.6442 179.076 49.6065 179.076 50.7003C179.076 51.5312 178.902 52.2734 178.554 52.9268C178.206 53.5732 177.727 54.1094 177.116 54.5355C176.505 54.9616 175.798 55.2599 174.996 55.4304V55.6435C175.876 55.6861 176.69 55.924 177.435 56.3572C178.188 56.7905 178.792 57.3942 179.246 58.1683C179.701 58.9354 179.928 59.8445 179.928 60.8956C179.928 62.0675 179.63 63.1151 179.033 64.0384C178.437 64.9545 177.574 65.679 176.445 66.2116C175.315 66.7372 173.945 67 172.332 67H162.542ZM167.815 62.7493H171.075C172.219 62.7493 173.06 62.5327 173.6 62.0994C174.147 61.6662 174.42 61.0625 174.42 60.2884C174.42 59.7273 174.289 59.2443 174.026 58.8395C173.763 58.4276 173.391 58.1115 172.908 57.8913C172.425 57.6641 171.846 57.5504 171.171 57.5504H167.815V62.7493ZM167.815 54.152H170.734C171.31 54.152 171.821 54.0561 172.268 53.8643C172.716 53.6726 173.064 53.3956 173.312 53.0334C173.568 52.6712 173.696 52.2344 173.696 51.723C173.696 50.9915 173.437 50.4162 172.918 49.9972C172.4 49.5781 171.7 49.3686 170.82 49.3686H167.815V54.152Z" fill="#104455"/>
</g>
<defs>
<filter id="filter0_d_1_8" x="0.400002" y="0.400002" width="219.2" height="107.2" filterUnits="userSpaceOnUse" color-interpolation-filters="sRGB">
<feFlood flood-opacity="0" result="BackgroundImageFix"/>
<feColorMatrix in="SourceAlpha" type="matrix" values="0 0 0 0 0 0 0 0 0 0 0 0 0 0 0 0 0 0 127 0" result="hardAlpha"/>
<feOffset dx="1" dy="-1"/>
<feGaussianBlur stdDeviation="16.8"/>
<feComposite in2="hardAlpha" operator="out"/>
<feColorMatrix type="matrix" values="0 0 0 0 0.227451 0 0 0 0 0.827451 0 0 0 0 0.803922 0 0 0 1 0"/>
<feBlend mode="normal" in2="BackgroundImageFix" result="effect1_dropShadow_1_8"/>
<feBlend mode="normal" in="SourceGraphic" in2="effect1_dropShadow_1_8" result="shape"/>
</filter>
</defs>
</svg>
