<svg width="50" height="50" viewBox="0 0 50 50" fill="none" xmlns="http://www.w3.org/2000/svg">
<g clip-path="url(#clip0_6_80)">
<path d="M15.6292 0H21V2.24583H17.875V4.49167H21V6.7375H15.6292V0ZM22.0729 0H27.4458V1.95417H24.3208V2.34375H27.4458V6.83542H22.0729V4.78542H25.1979V4.39375H22.0729V0ZM28.5208 0H33.8896V1.95417H30.7646V2.34375H33.8896V6.83542H28.5208V4.78542H31.6458V4.39375H28.5208V0Z" fill="#104455"/>
<path fill-rule="evenodd" clip-rule="evenodd" d="M24.9812 50L10.5146 45.9833L6.25 9.82709H43.75L39.4875 45.9792L24.9812 50ZM14.6812 26.1938L15.0792 30.6271H30.4479L29.9333 36.3771L24.9875 37.7146H24.9833L20.0458 36.3813L19.7292 32.8458H15.2771L15.8979 39.8083L24.9812 42.3292L34.0792 39.8083L35.1875 27.3833L35.2958 26.1938L36.0958 17.2167H13.8833L14.2875 21.6521H31.2375L30.8333 26.1938H14.6812Z" fill="#104455"/>
</g>
<defs>
<clipPath id="clip0_6_80">
<rect width="50" height="50" fill="white"/>
</clipPath>
</defs>
</svg>
