<svg width="51" height="56" viewBox="0 0 51 56" fill="none" xmlns="http://www.w3.org/2000/svg">
<g filter="url(#filter0_d_158_529)">
<path d="M35.4166 37.5C33.1041 37.5 31.2499 39.3542 31.2499 41.6667C31.2499 42.7718 31.6889 43.8316 32.4703 44.613C33.2517 45.3944 34.3115 45.8334 35.4166 45.8334C36.5217 45.8334 37.5815 45.3944 38.3629 44.613C39.1443 43.8316 39.5833 42.7718 39.5833 41.6667C39.5833 40.5616 39.1443 39.5018 38.3629 38.7204C37.5815 37.939 36.5217 37.5 35.4166 37.5ZM2.08325 4.16669V8.33335H6.24992L13.7499 24.1459L10.9166 29.25C10.6041 29.8334 10.4166 30.5209 10.4166 31.25C10.4166 32.3551 10.8556 33.4149 11.637 34.1963C12.4184 34.9777 13.4782 35.4167 14.5833 35.4167H39.5833V31.25H15.4583C15.3201 31.25 15.1876 31.1951 15.09 31.0975C14.9923 30.9998 14.9374 30.8673 14.9374 30.7292C14.9374 30.625 14.9583 30.5417 14.9999 30.4792L16.8749 27.0834H32.3958C33.9583 27.0834 35.3332 26.2084 36.0416 24.9375L43.4999 11.4584C43.6457 11.125 43.7499 10.7709 43.7499 10.4167C43.7499 9.86415 43.5304 9.33425 43.1397 8.94355C42.749 8.55285 42.2191 8.33335 41.6666 8.33335H10.8541L8.89575 4.16669M14.5833 37.5C12.2708 37.5 10.4166 39.3542 10.4166 41.6667C10.4166 42.7718 10.8556 43.8316 11.637 44.613C12.4184 45.3944 13.4782 45.8334 14.5833 45.8334C15.6883 45.8334 16.7481 45.3944 17.5295 44.613C18.3109 43.8316 18.7499 42.7718 18.7499 41.6667C18.7499 40.5616 18.3109 39.5018 17.5295 38.7204C16.7481 37.939 15.6883 37.5 14.5833 37.5Z" fill="#104455"/>
</g>
<defs>
<filter id="filter0_d_158_529" x="-1" y="0" width="58" height="60" filterUnits="userSpaceOnUse" color-interpolation-filters="sRGB">
<feFlood flood-opacity="0" result="BackgroundImageFix"/>
<feColorMatrix in="SourceAlpha" type="matrix" values="0 0 0 0 0 0 0 0 0 0 0 0 0 0 0 0 0 0 127 0" result="hardAlpha"/>
<feOffset dx="3" dy="6"/>
<feGaussianBlur stdDeviation="2"/>
<feComposite in2="hardAlpha" operator="out"/>
<feColorMatrix type="matrix" values="0 0 0 0 0 0 0 0 0 0 0 0 0 0 0 0 0 0 0.25 0"/>
<feBlend mode="normal" in2="BackgroundImageFix" result="effect1_dropShadow_158_529"/>
<feBlend mode="normal" in="SourceGraphic" in2="effect1_dropShadow_158_529" result="shape"/>
</filter>
</defs>
</svg>
