<svg width="35" height="35" viewBox="0 0 35 35" fill="none" xmlns="http://www.w3.org/2000/svg">
<g clip-path="url(#clip0_155_610)">
<path d="M32.1662 7.62683L21.4125 2.5037C19.0453 1.08976 16.0991 1.06467 13.7081 2.43808L2.83337 7.62683C2.79256 7.64727 2.75024 7.66914 2.71087 7.69245C0.130165 9.16806 -0.765753 12.4563 0.709852 15.0371C1.21004 15.9119 1.94579 16.6287 2.83337 17.106L5.83318 18.5352V25.681C5.83496 28.8763 7.91411 31.6993 10.9651 32.649C13.0882 33.2632 15.2897 33.5639 17.4999 33.5415C19.7097 33.5662 21.9112 33.268 24.0347 32.6563C27.0856 31.7067 29.1648 28.8837 29.1666 25.6883V18.5323L32.0832 17.1381V29.1664C32.0832 29.9718 32.7361 30.6247 33.5416 30.6247C34.347 30.6247 34.9999 29.9718 34.9999 29.1664V11.6664C35.0096 9.95392 33.6574 8.37194 32.1662 7.62683ZM26.2498 25.6883C26.2506 27.5996 25.0105 29.2902 23.1873 29.8635C21.3385 30.3918 19.4225 30.6482 17.4998 30.6248C15.5771 30.6482 13.6612 30.3918 11.8123 29.8635C9.98909 29.2901 8.74905 27.5996 8.7498 25.6883V19.925L13.5871 22.2292C14.7807 22.938 16.1438 23.3104 17.5319 23.3069C18.8532 23.3163 20.1522 22.9665 21.2901 22.2948L26.2498 19.9249V25.6883ZM30.9165 14.4737L19.9177 19.7237C18.3842 20.6167 16.4833 20.5914 14.974 19.6581L4.21293 14.5393C3.01343 13.8925 2.5654 12.3958 3.21222 11.1963C3.43097 10.7907 3.75895 10.4544 4.15899 10.2256L15.0892 5.00477C16.6232 4.11377 18.5231 4.13899 20.0329 5.07039L30.7867 10.1935C31.5775 10.6327 32.0723 11.4619 32.0831 12.3665C32.0845 13.2233 31.6434 14.0201 30.9165 14.4737Z" fill="white"/>
</g>
<defs>
<clipPath id="clip0_155_610">
<rect width="35" height="35" fill="white"/>
</clipPath>
</defs>
</svg>
