<svg width="32" height="35" viewBox="0 0 32 35" fill="none" xmlns="http://www.w3.org/2000/svg">
<path d="M3.99992 27.7084C3.26659 27.7084 2.63903 27.423 2.11725 26.8523C1.59547 26.2816 1.33414 25.5947 1.33325 24.7917V10.2084C1.33325 9.40627 1.59459 8.71988 2.11725 8.14919C2.63992 7.57849 3.26747 7.29266 3.99992 7.29169H17.3333C18.0666 7.29169 18.6946 7.57752 19.2173 8.14919C19.7399 8.72085 20.0008 9.40724 19.9999 10.2084V24.7917C19.9999 25.5938 19.739 26.2806 19.2173 26.8523C18.6955 27.424 18.0675 27.7093 17.3333 27.7084H3.99992ZM22.6666 27.7084V7.29169H25.3333V27.7084H22.6666ZM27.9999 27.7084V7.29169H30.6666V27.7084H27.9999Z" fill="white"/>
</svg>
