<svg width="35" height="35" viewBox="0 0 35 35" fill="none" xmlns="http://www.w3.org/2000/svg">
<path fill-rule="evenodd" clip-rule="evenodd" d="M5.83333 4.375C5.44656 4.375 5.07563 4.52865 4.80214 4.80214C4.52865 5.07563 4.375 5.44656 4.375 5.83333V17.5C4.375 17.8868 4.52865 18.2577 4.80214 18.5312C5.07563 18.8047 5.44656 18.9583 5.83333 18.9583H7.29167V21.875C7.29173 22.1634 7.37729 22.4453 7.53754 22.685C7.69779 22.9248 7.92552 23.1117 8.19196 23.222C8.4584 23.3324 8.75157 23.3613 9.03442 23.305C9.31727 23.2488 9.57709 23.1099 9.78104 22.906L13.7287 18.9583H21.875C22.2618 18.9583 22.6327 18.8047 22.9062 18.5312C23.1797 18.2577 23.3333 17.8868 23.3333 17.5V5.83333C23.3333 5.44656 23.1797 5.07563 22.9062 4.80214C22.6327 4.52865 22.2618 4.375 21.875 4.375H5.83333Z" fill="white"/>
<path fill-rule="evenodd" clip-rule="evenodd" d="M11.7002 25.1052C11.7483 25.0615 11.7964 25.0148 11.8431 24.9681L14.9377 21.875H21.875C23.0353 21.875 24.1481 21.4141 24.9686 20.5936C25.7891 19.7731 26.25 18.6603 26.25 17.5V11.6667H29.1667C29.5534 11.6667 29.9244 11.8203 30.1979 12.0938C30.4713 12.3673 30.625 12.7382 30.625 13.125V24.7917C30.625 25.1784 30.4713 25.5494 30.1979 25.8229C29.9244 26.0964 29.5534 26.25 29.1667 26.25H27.7083V29.1667C27.7083 29.4551 27.6227 29.7369 27.4624 29.9767C27.3022 30.2165 27.0745 30.4033 26.808 30.5137C26.5416 30.6241 26.2484 30.6529 25.9656 30.5967C25.6827 30.5404 25.4229 30.4016 25.2189 30.1977L21.2712 26.25H13.125C12.7926 26.2501 12.4701 26.1367 12.211 25.9285C11.9519 25.7203 11.7717 25.4298 11.7002 25.1052Z" fill="white"/>
</svg>
