<svg width="35" height="35" viewBox="0 0 35 35" fill="none" xmlns="http://www.w3.org/2000/svg">
<path d="M8.75 13.9959H12.25C12.7141 13.9959 13.1592 13.8116 13.4874 13.4835C13.8156 13.1554 14 12.7104 14 12.2464C14 11.7825 13.8156 11.3375 13.4874 11.0094C13.1592 10.6813 12.7141 10.497 12.25 10.497H8.75C8.28587 10.497 7.84075 10.6813 7.51256 11.0094C7.18437 11.3375 7 11.7825 7 12.2464C7 12.7104 7.18437 13.1554 7.51256 13.4835C7.84075 13.8116 8.28587 13.9959 8.75 13.9959ZM33.25 3.49899H19.25V1.74949C19.25 1.2855 19.0656 0.840508 18.7374 0.512414C18.4092 0.184321 17.9641 0 17.5 0C17.0359 0 16.5908 0.184321 16.2626 0.512414C15.9344 0.840508 15.75 1.2855 15.75 1.74949V3.49899H1.75C1.28587 3.49899 0.840752 3.68331 0.512563 4.0114C0.184374 4.33949 0 4.78448 0 5.24848V22.7434C0 24.1354 0.553124 25.4704 1.53769 26.4546C2.52226 27.4389 3.85761 27.9919 5.25 27.9919H13.2825L9.2575 31.9982C9.09348 32.1609 8.96329 32.3544 8.87444 32.5675C8.78559 32.7807 8.73985 33.0094 8.73985 33.2404C8.73985 33.4713 8.78559 33.7 8.87444 33.9132C8.96329 34.1264 9.09348 34.3199 9.2575 34.4825C9.42019 34.6465 9.61374 34.7766 9.82699 34.8655C10.0402 34.9543 10.269 35 10.5 35C10.731 35 10.9598 34.9543 11.173 34.8655C11.3863 34.7766 11.5798 34.6465 11.7425 34.4825L15.75 30.4587V33.2404C15.75 33.7044 15.9344 34.1493 16.2626 34.4774C16.5908 34.8055 17.0359 34.9899 17.5 34.9899C17.9641 34.9899 18.4092 34.8055 18.7374 34.4774C19.0656 34.1493 19.25 33.7044 19.25 33.2404V30.4587L23.2575 34.4825C23.4202 34.6465 23.6137 34.7766 23.827 34.8655C24.0402 34.9543 24.269 35 24.5 35C24.731 35 24.9598 34.9543 25.173 34.8655C25.3863 34.7766 25.5798 34.6465 25.7425 34.4825C25.9065 34.3199 26.0367 34.1264 26.1256 33.9132C26.2144 33.7 26.2601 33.4713 26.2601 33.2404C26.2601 33.0094 26.2144 32.7807 26.1256 32.5675C26.0367 32.3544 25.9065 32.1609 25.7425 31.9982L21.7175 27.9919H29.75C31.1424 27.9919 32.4777 27.4389 33.4623 26.4546C34.4469 25.4704 35 24.1354 35 22.7434V5.24848C35 4.78448 34.8156 4.33949 34.4874 4.0114C34.1592 3.68331 33.7141 3.49899 33.25 3.49899ZM31.5 22.7434C31.5 23.2074 31.3156 23.6524 30.9874 23.9805C30.6593 24.3086 30.2141 24.4929 29.75 24.4929H5.25C4.78587 24.4929 4.34075 24.3086 4.01256 23.9805C3.68437 23.6524 3.5 23.2074 3.5 22.7434V6.99797H31.5V22.7434ZM8.75 20.9939H19.25C19.7141 20.9939 20.1592 20.8096 20.4874 20.4815C20.8156 20.1534 21 19.7084 21 19.2444C21 18.7804 20.8156 18.3354 20.4874 18.0073C20.1592 17.6792 19.7141 17.4949 19.25 17.4949H8.75C8.28587 17.4949 7.84075 17.6792 7.51256 18.0073C7.18437 18.3354 7 18.7804 7 19.2444C7 19.7084 7.18437 20.1534 7.51256 20.4815C7.84075 20.8096 8.28587 20.9939 8.75 20.9939Z" fill="white"/>
</svg>
