<svg width="35" height="35" viewBox="0 0 35 35" fill="none" xmlns="http://www.w3.org/2000/svg">
<path fill-rule="evenodd" clip-rule="evenodd" d="M28.4375 9.47917C27.8573 9.47917 27.3009 9.70963 26.8907 10.1199C26.4805 10.5301 26.25 11.0865 26.25 11.6667V13.125H30.625V11.6667C30.625 11.0865 30.3945 10.5301 29.9843 10.1199C29.5741 9.70963 29.0177 9.47917 28.4375 9.47917ZM30.625 14.5833H26.25V26.6146L28.4375 29.8958L30.625 26.6146V14.5833ZM4.375 6.5625V28.4375C4.375 29.0177 4.60547 29.5741 5.0157 29.9843C5.42594 30.3945 5.98234 30.625 6.5625 30.625H22.6042C23.1843 30.625 23.7407 30.3945 24.151 29.9843C24.5612 29.5741 24.7917 29.0177 24.7917 28.4375V6.5625C24.7917 5.98234 24.5612 5.42594 24.151 5.0157C23.7407 4.60547 23.1843 4.375 22.6042 4.375H6.5625C5.98234 4.375 5.42594 4.60547 5.0157 5.0157C4.60547 5.42594 4.375 5.98234 4.375 6.5625ZM14.5833 10.9375C14.5833 10.7441 14.6602 10.5586 14.7969 10.4219C14.9336 10.2852 15.1191 10.2083 15.3125 10.2083H21.1458C21.3392 10.2083 21.5247 10.2852 21.6614 10.4219C21.7982 10.5586 21.875 10.7441 21.875 10.9375C21.875 11.1309 21.7982 11.3164 21.6614 11.4531C21.5247 11.5898 21.3392 11.6667 21.1458 11.6667H15.3125C15.1191 11.6667 14.9336 11.5898 14.7969 11.4531C14.6602 11.3164 14.5833 11.1309 14.5833 10.9375ZM15.3125 13.125C15.1191 13.125 14.9336 13.2018 14.7969 13.3386C14.6602 13.4753 14.5833 13.6608 14.5833 13.8542C14.5833 14.0476 14.6602 14.233 14.7969 14.3698C14.9336 14.5065 15.1191 14.5833 15.3125 14.5833H21.1458C21.3392 14.5833 21.5247 14.5065 21.6614 14.3698C21.7982 14.233 21.875 14.0476 21.875 13.8542C21.875 13.6608 21.7982 13.4753 21.6614 13.3386C21.5247 13.2018 21.3392 13.125 21.1458 13.125H15.3125ZM14.5833 20.4167C14.5833 20.2233 14.6602 20.0378 14.7969 19.9011C14.9336 19.7643 15.1191 19.6875 15.3125 19.6875H21.1458C21.3392 19.6875 21.5247 19.7643 21.6614 19.9011C21.7982 20.0378 21.875 20.2233 21.875 20.4167C21.875 20.6101 21.7982 20.7955 21.6614 20.9323C21.5247 21.069 21.3392 21.1458 21.1458 21.1458H15.3125C15.1191 21.1458 14.9336 21.069 14.7969 20.9323C14.6602 20.7955 14.5833 20.6101 14.5833 20.4167ZM15.3125 22.6042C15.1191 22.6042 14.9336 22.681 14.7969 22.8177C14.6602 22.9545 14.5833 23.1399 14.5833 23.3333C14.5833 23.5267 14.6602 23.7122 14.7969 23.8489C14.9336 23.9857 15.1191 24.0625 15.3125 24.0625H21.1458C21.3392 24.0625 21.5247 23.9857 21.6614 23.8489C21.7982 23.7122 21.875 23.5267 21.875 23.3333C21.875 23.1399 21.7982 22.9545 21.6614 22.8177C21.5247 22.681 21.3392 22.6042 21.1458 22.6042H15.3125ZM8.75 20.4167V22.6042H10.9375V20.4167H8.75ZM8.02083 18.9583H11.6667C11.8601 18.9583 12.0455 19.0352 12.1823 19.1719C12.319 19.3086 12.3958 19.4941 12.3958 19.6875V23.3333C12.3958 23.5267 12.319 23.7122 12.1823 23.8489C12.0455 23.9857 11.8601 24.0625 11.6667 24.0625H8.02083C7.82745 24.0625 7.64198 23.9857 7.50523 23.8489C7.36849 23.7122 7.29167 23.5267 7.29167 23.3333V19.6875C7.29167 19.4941 7.36849 19.3086 7.50523 19.1719C7.64198 19.0352 7.82745 18.9583 8.02083 18.9583ZM12.9114 11.453C13.0442 11.3155 13.1177 11.1313 13.116 10.9401C13.1144 10.7489 13.0377 10.5661 12.9025 10.4309C12.7673 10.2957 12.5844 10.219 12.3932 10.2173C12.202 10.2157 12.0178 10.2892 11.8803 10.422L9.47917 12.8231L8.53635 11.8803C8.39883 11.7475 8.21464 11.674 8.02346 11.6757C7.83227 11.6773 7.64939 11.754 7.51419 11.8892C7.379 12.0244 7.30232 12.2073 7.30065 12.3985C7.29899 12.5896 7.37249 12.7738 7.50531 12.9114L9.47917 14.8852L12.9114 11.453Z" fill="white"/>
</svg>
