<svg width="142" height="50" viewBox="0 0 142 50" fill="none" xmlns="http://www.w3.org/2000/svg">
<g clip-path="url(#clip0_6_100)">
<path d="M70.1985 49.8557C69.7178 49.8557 69.2691 49.7822 68.8522 49.6534L64.5892 48.1995C63.948 47.997 64.2686 47.9234 64.4611 47.8866C65.3264 47.721 65.4867 47.6841 66.3842 47.3898C66.4804 47.3529 66.6088 47.3713 66.7048 47.4081L69.9744 48.5307C70.1025 48.5675 70.2628 48.5675 70.3588 48.5307L83.1485 44.2795C83.2766 44.2427 83.341 44.169 83.341 44.0771V35.593C83.341 35.5008 83.2766 35.4274 83.1485 35.3905L70.3588 31.1576C70.2306 31.1207 70.0703 31.1207 69.9744 31.1576L57.1847 35.3905C57.0565 35.4272 56.9922 35.5193 56.9922 35.5928V44.0769C56.9922 44.1506 57.0565 44.2425 57.1847 44.2795L60.6786 45.4389C62.5699 45.9909 63.7558 45.3468 63.7558 44.7027V36.329C63.7558 36.2186 63.9161 36.1081 64.1404 36.1081H65.7751C65.9676 36.1081 66.1598 36.2002 66.1598 36.329V44.7027C66.1598 46.1565 64.7814 47.0032 62.3774 47.0032C61.6402 47.0032 61.0633 47.0032 59.4284 46.543L56.0628 45.4389C55.2294 45.1629 54.7166 44.6475 54.7166 44.0954V35.6113C54.7166 35.0592 55.2294 34.5438 56.0628 34.2678L68.8522 30.0166C69.6538 29.7589 70.7437 29.7589 71.545 30.0166L84.3344 34.2678C85.1678 34.5438 85.6809 35.0592 85.6809 35.6113V44.0954C85.6809 44.6475 85.1678 45.1629 84.3344 45.4389L71.545 49.6901C71.1281 49.8006 70.6472 49.8557 70.1985 49.8557ZM74.1415 44.0218C68.5322 44.0218 67.3782 42.5495 67.3782 41.2981C67.3782 41.1876 67.5385 41.0772 67.7628 41.0772H69.4297C69.6219 41.0772 69.7822 41.1508 69.7822 41.2613C70.0387 42.2366 70.7759 42.7151 74.1736 42.7151C76.8661 42.7151 78.0204 42.3655 78.0204 41.5373C78.0204 41.0588 77.6995 40.7092 73.5005 40.4699C70.0065 40.2674 67.8269 39.8258 67.8269 38.2247C67.8269 36.7339 70.0068 35.8505 73.6608 35.8505C77.7636 35.8505 79.7832 36.6604 80.0397 38.4269C80.0397 38.4823 80.0076 38.5374 79.9435 38.5927C79.8792 38.6295 79.7832 38.6662 79.6869 38.6662H78.0201C77.8598 38.6662 77.6995 38.5927 77.6676 38.5006C77.2829 37.4885 76.2892 37.1572 73.6608 37.1572C70.7118 37.1572 70.359 37.7462 70.359 38.1877C70.359 38.7215 70.7759 38.8871 74.7505 39.1815C78.6932 39.4761 80.5525 39.8994 80.5525 41.482C80.5204 43.1016 78.2126 44.0218 74.1415 44.0218Z" fill="#539E43"/>
<path d="M30.5156 16.6737C30.5156 16.3425 30.195 16.0294 29.6821 15.8638L16.0912 11.3734C15.8665 11.2996 15.6103 11.2629 15.354 11.2444H15.2256C14.9693 11.2444 14.7128 11.2996 14.4884 11.3734L0.897474 15.8638C0.384388 16.0294 0.0640564 16.3423 0.0640564 16.6737L0.0962283 28.7465C0.0962283 28.9121 0.256533 29.0777 0.512799 29.1514C0.769342 29.2434 1.08967 29.2434 1.31432 29.1514L9.39196 26.5012C9.90477 26.3356 10.2254 26.0227 10.2254 25.6915V20.0415C10.2254 19.7103 10.5457 19.3974 11.0588 19.2318L14.4884 18.0907C14.745 17.9987 15.0334 17.9617 15.3218 17.9617C15.6103 17.9617 15.8987 17.9987 16.1234 18.0907L19.553 19.2318C20.0661 19.3974 20.3864 19.7101 20.3864 20.0415V25.6915C20.3864 26.0227 20.707 26.3356 21.2198 26.5012L29.2975 29.1514C29.4223 29.1965 29.5667 29.2204 29.7142 29.2204C29.8616 29.2204 30.0061 29.1965 30.1309 29.1514C30.3874 29.0777 30.5477 28.9121 30.5477 28.7465L30.5156 16.6737ZM95.842 0.0550504C95.5857 -0.0186757 95.2651 -0.0186757 95.0404 0.0550504C94.7842 0.147089 94.6239 0.294222 94.6239 0.459828V12.4224C94.6239 12.5328 94.5279 12.6431 94.3354 12.7168C94.1432 12.7719 93.9507 12.7719 93.7585 12.7168L90.3608 11.5942C90.1117 11.5128 89.83 11.47 89.5433 11.47C89.2567 11.47 88.975 11.5128 88.7259 11.5942L75.1349 16.1031C74.6221 16.2687 74.3015 16.5816 74.3015 16.9129V25.9122C74.3015 26.2434 74.6221 26.5565 75.1349 26.7221L88.7259 31.231C88.975 31.3124 89.2567 31.3553 89.5433 31.3553C89.83 31.3553 90.1117 31.3124 90.3608 31.231L103.952 26.7221C104.465 26.5565 104.785 26.2436 104.785 25.9122V3.47814C104.785 3.12846 104.465 2.81572 103.952 2.64995L95.842 0.0550504ZM94.592 22.9493C94.592 23.0414 94.5279 23.1149 94.3995 23.1517L89.7518 24.6976C89.6868 24.7157 89.6156 24.7252 89.5433 24.7252C89.4711 24.7252 89.3998 24.7157 89.3349 24.6976L84.6872 23.1517C84.5588 23.1149 84.4947 23.0229 84.4947 22.9493V19.8574C84.4947 19.7654 84.5588 19.6918 84.6872 19.655L89.3349 18.109C89.3998 18.0908 89.4711 18.0814 89.5433 18.0814C89.6156 18.0814 89.6868 18.0908 89.7518 18.109L94.3995 19.655C94.5279 19.6917 94.592 19.7839 94.592 19.8574V22.9493ZM141.07 19.7839C141.583 19.6183 141.872 19.3054 141.872 18.974V16.784C141.872 16.4528 141.551 16.1399 141.07 15.9743L127.576 11.4839C127.327 11.4024 127.045 11.3596 126.758 11.3596C126.471 11.3596 126.19 11.4024 125.941 11.4839L112.35 15.9926C111.837 16.1582 111.516 16.4711 111.516 16.8023V25.8019C111.516 26.1331 111.837 26.446 112.35 26.6116L125.844 31.0285C126.358 31.1941 126.967 31.1941 127.447 31.0285L135.621 28.4154C135.878 28.3417 136.038 28.1761 136.038 28.0105C136.038 27.8449 135.878 27.6793 135.621 27.6055L121.966 23.0966C121.71 23.0046 121.549 22.8574 121.549 22.6918V19.8761C121.549 19.7105 121.71 19.5449 121.966 19.4711L126.229 18.0724C126.354 18.0273 126.498 18.0034 126.646 18.0034C126.793 18.0034 126.938 18.0273 127.063 18.0724L131.326 19.4711C131.582 19.5632 131.742 19.7103 131.742 19.8761V22.0845C131.742 22.2501 131.903 22.4157 132.159 22.4893C132.284 22.5344 132.429 22.5583 132.576 22.5583C132.723 22.5583 132.868 22.5344 132.993 22.4893L141.07 19.7839Z" fill="#333333"/>
<path d="M126.55 19.3607C126.597 19.3427 126.653 19.3331 126.71 19.3331C126.767 19.3331 126.823 19.3427 126.87 19.3607L129.467 20.2256C129.563 20.2626 129.627 20.3177 129.627 20.3913V22.1214C129.627 22.1949 129.563 22.2502 129.467 22.287L126.87 23.1519C126.823 23.1699 126.767 23.1795 126.71 23.1795C126.653 23.1795 126.597 23.1699 126.55 23.1519L123.954 22.287C123.857 22.2502 123.793 22.1949 123.793 22.1214V20.3914C123.793 20.3177 123.857 20.2624 123.954 20.2258L126.55 19.3607Z" fill="#539E43"/>
<path d="M53.2419 11.5209C52.9929 11.4395 52.7112 11.3967 52.4246 11.3967C52.138 11.3967 51.8563 11.4395 51.6073 11.5209L38.1126 15.9927C37.5995 16.1583 37.311 16.4712 37.311 16.8024V25.7651C37.311 26.0964 37.6316 26.4093 38.1126 26.5749L51.6073 31.047C51.8563 31.1284 52.138 31.1712 52.4246 31.1712C52.7112 31.1712 52.9929 31.1284 53.2419 31.047L66.7369 26.5749C67.2497 26.4093 67.5385 26.0964 67.5385 25.7651V16.8026C67.5385 16.4714 67.2176 16.1585 66.7369 15.9929L53.2419 11.5209Z" fill="url(#paint0_linear_6_100)"/>
<mask id="mask0_6_100" style="mask-type:luminance" maskUnits="userSpaceOnUse" x="37" y="11" width="31" height="21">
<path d="M53.2419 11.5209C52.9929 11.4395 52.7112 11.3967 52.4246 11.3967C52.138 11.3967 51.8563 11.4395 51.6073 11.5209L38.1126 15.9927C37.5995 16.1583 37.311 16.4712 37.311 16.8024V25.7651C37.311 26.0964 37.6316 26.4093 38.1126 26.5749L51.6073 31.047C51.8563 31.1284 52.138 31.1712 52.4246 31.1712C52.7112 31.1712 52.9929 31.1284 53.2419 31.047L66.7369 26.5749C67.2497 26.4093 67.5385 26.0964 67.5385 25.7651V16.8026C67.5385 16.4714 67.2176 16.1585 66.7369 15.9929L53.2419 11.5209Z" fill="white"/>
</mask>
<g mask="url(#mask0_6_100)">
<path d="M66.7688 15.9928L53.21 11.5209C53.0768 11.4822 52.9372 11.4514 52.7932 11.4288L37.5995 26.3728C37.7253 26.461 37.8773 26.5358 38.0485 26.5936L51.6073 31.0658C51.9919 31.1946 52.4407 31.2314 52.8572 31.1577L67.1216 16.1771C67.0253 16.1035 66.8969 16.0479 66.7688 15.9928Z" fill="url(#paint1_linear_6_100)"/>
</g>
<mask id="mask1_6_100" style="mask-type:luminance" maskUnits="userSpaceOnUse" x="37" y="11" width="31" height="21">
<path d="M53.2419 11.5209C52.9929 11.4395 52.7112 11.3967 52.4246 11.3967C52.138 11.3967 51.8563 11.4395 51.6073 11.5209L38.1126 15.9927C37.5995 16.1583 37.311 16.4712 37.311 16.8024V25.7651C37.311 26.0964 37.6316 26.4093 38.1126 26.5749L51.6073 31.047C51.8563 31.1284 52.138 31.1712 52.4246 31.1712C52.7112 31.1712 52.9929 31.1284 53.2419 31.047L66.7369 26.5749C67.2497 26.4093 67.5385 26.0964 67.5385 25.7651V16.8026C67.5385 16.4714 67.2176 16.1585 66.7369 15.9929L53.2419 11.5209Z" fill="white"/>
</mask>
<g mask="url(#mask1_6_100)">
<path fill-rule="evenodd" clip-rule="evenodd" d="M66.801 26.575C67.1857 26.4462 67.4741 26.2253 67.6025 25.9862L52.7288 11.4104C52.3442 11.3736 51.9273 11.3919 51.5751 11.5207L38.1123 15.9745L52.6326 31.176C52.8438 31.1561 53.0489 31.119 53.2417 31.0656L66.801 26.575Z" fill="url(#paint2_linear_6_100)"/>
<path fill-rule="evenodd" clip-rule="evenodd" d="M66.801 26.575L53.2741 31.0471C53.0831 31.103 52.8773 31.1403 52.665 31.1575L52.9216 31.4336L67.9228 26.4463V26.3358L67.5382 25.9677C67.4741 26.2253 67.1856 26.4462 66.801 26.575Z" fill="url(#paint3_linear_6_100)"/>
<path fill-rule="evenodd" clip-rule="evenodd" d="M66.801 26.575L53.2741 31.0471C53.0831 31.103 52.8773 31.1403 52.665 31.1575L52.9216 31.4336L67.9228 26.4463V26.3358L67.5382 25.9677C67.4741 26.2253 67.1856 26.4462 66.801 26.575Z" fill="url(#paint4_linear_6_100)"/>
</g>
</g>
<defs>
<linearGradient id="paint0_linear_6_100" x1="2098.46" y1="357.194" x2="1494.07" y2="2011.25" gradientUnits="userSpaceOnUse">
<stop stop-color="#41873F"/>
<stop offset="0.3288" stop-color="#418B3D"/>
<stop offset="0.6352" stop-color="#419637"/>
<stop offset="0.9319" stop-color="#3FA92D"/>
<stop offset="1" stop-color="#3FAE2A"/>
</linearGradient>
<linearGradient id="paint1_linear_6_100" x1="1315.23" y1="1101.92" x2="3846.52" y2="-1293.4" gradientUnits="userSpaceOnUse">
<stop offset="0.1376" stop-color="#41873F"/>
<stop offset="0.4032" stop-color="#54A044"/>
<stop offset="0.7136" stop-color="#66B848"/>
<stop offset="0.9081" stop-color="#6CC04A"/>
</linearGradient>
<linearGradient id="paint2_linear_6_100" x1="-91.3204" y1="1000.45" x2="3031.34" y2="1000.45" gradientUnits="userSpaceOnUse">
<stop offset="0.09192" stop-color="#3AD3CD"/>
<stop offset="0.2864" stop-color="#7FFFD6"/>
<stop offset="0.5968" stop-color="#54A044"/>
<stop offset="0.8624" stop-color="#41873F"/>
</linearGradient>
<linearGradient id="paint3_linear_6_100" x1="-1532.02" y1="300.767" x2="1590.6" y2="300.767" gradientUnits="userSpaceOnUse">
<stop offset="0.09192" stop-color="#6CC04A"/>
<stop offset="0.2864" stop-color="#66B848"/>
<stop offset="0.5968" stop-color="#54A044"/>
<stop offset="0.8624" stop-color="#41873F"/>
</linearGradient>
<linearGradient id="paint4_linear_6_100" x1="2045.53" y1="-1127.72" x2="1778.46" y2="1309.68" gradientUnits="userSpaceOnUse">
<stop stop-color="#3AD3CD"/>
<stop offset="0.3288" stop-color="#3AD3CD" stop-opacity="0.4"/>
<stop offset="0.6352" stop-color="#7FFFD6"/>
<stop offset="0.9319" stop-color="#3AD3CD" stop-opacity="0.33"/>
<stop offset="1" stop-color="#3AD3CD"/>
</linearGradient>
<clipPath id="clip0_6_100">
<rect width="142" height="50" fill="white"/>
</clipPath>
</defs>
</svg>
