<svg width="16" height="17" viewBox="0 0 16 17" fill="none" xmlns="http://www.w3.org/2000/svg">
<g id="fi-rr-sign-out" clip-path="url(#clip0_155_631)">
<path id="Vector" d="M15.2193 6.61411L12.6333 4.02811C12.5075 3.90667 12.3391 3.83947 12.1643 3.84099C11.9895 3.84251 11.8223 3.91262 11.6987 4.03623C11.5751 4.15983 11.505 4.32704 11.5035 4.50184C11.502 4.67664 11.5692 4.84504 11.6906 4.97077L14.2766 7.55677C14.3534 7.63513 14.4206 7.72242 14.4766 7.81677C14.4666 7.81677 14.4586 7.81144 14.4486 7.81144L3.99259 7.83277C3.81578 7.83277 3.64621 7.90301 3.52119 8.02804C3.39617 8.15306 3.32593 8.32263 3.32593 8.49944C3.32593 8.67625 3.39617 8.84582 3.52119 8.97084C3.64621 9.09587 3.81578 9.16611 3.99259 9.16611L14.4446 9.14477C14.4633 9.14477 14.4786 9.13544 14.4966 9.13411C14.4375 9.24688 14.3625 9.3506 14.2739 9.44211L11.6879 12.0281C11.6243 12.0896 11.5735 12.1632 11.5385 12.2445C11.5036 12.3258 11.4852 12.4133 11.4844 12.5018C11.4837 12.5904 11.5005 12.6781 11.534 12.7601C11.5676 12.842 11.6171 12.9164 11.6797 12.979C11.7423 13.0416 11.8167 13.0911 11.8986 13.1247C11.9806 13.1582 12.0683 13.175 12.1569 13.1743C12.2454 13.1735 12.3329 13.1551 12.4142 13.1202C12.4955 13.0852 12.5691 13.0344 12.6306 12.9708L15.2166 10.3848C15.7165 9.8847 15.9974 9.20654 15.9974 8.49944C15.9974 7.79234 15.7165 7.11418 15.2166 6.61411H15.2193Z" fill="white"/>
<path id="Vector_2" d="M4.66667 15.1667H3.33333C2.8029 15.1667 2.29419 14.956 1.91912 14.5809C1.54405 14.2058 1.33333 13.6971 1.33333 13.1667V3.83333C1.33333 3.3029 1.54405 2.79419 1.91912 2.41912C2.29419 2.04405 2.8029 1.83333 3.33333 1.83333H4.66667C4.84348 1.83333 5.01305 1.7631 5.13807 1.63807C5.2631 1.51305 5.33333 1.34348 5.33333 1.16667C5.33333 0.989856 5.2631 0.820286 5.13807 0.695262C5.01305 0.570238 4.84348 0.5 4.66667 0.5H3.33333C2.4496 0.501059 1.60237 0.852588 0.97748 1.47748C0.352588 2.10237 0.00105857 2.9496 0 3.83333L0 13.1667C0.00105857 14.0504 0.352588 14.8976 0.97748 15.5225C1.60237 16.1474 2.4496 16.4989 3.33333 16.5H4.66667C4.84348 16.5 5.01305 16.4298 5.13807 16.3047C5.2631 16.1797 5.33333 16.0101 5.33333 15.8333C5.33333 15.6565 5.2631 15.487 5.13807 15.3619C5.01305 15.2369 4.84348 15.1667 4.66667 15.1667Z" fill="white"/>
</g>
<defs>
<clipPath id="clip0_155_631">
<rect width="16" height="16" fill="white" transform="translate(0 0.5)"/>
</clipPath>
</defs>
</svg>
