<svg width="95" height="100" viewBox="0 0 95 100" fill="none" xmlns="http://www.w3.org/2000/svg">
<path d="M53.6754 2.54826L15.0883 40.5622C11.8232 43.7788 11.7836 49.0819 15.0001 52.347L41.3175 79.0612C42.8686 80.6356 44.9815 81.5294 47.1916 81.546C49.4017 81.5625 51.5278 80.7004 53.1023 79.1494L91.6894 41.1354C94.9842 37.8896 95.0234 32.6454 91.7776 29.3506L65.4602 2.63644C63.9092 1.06199 61.7962 0.168181 59.5861 0.151646C57.376 0.13511 55.2499 0.997198 53.6754 2.54826ZM64.4071 13.4417L54.8509 42.3329L25.8199 51.4557L20.9366 46.4987L49.9091 37.3166L59.5237 8.48475L64.4071 13.4417ZM35.381 84.9095C35.8781 85.4141 36.435 85.8013 36.9915 86.2474L24.9701 98.0902C23.3317 99.7043 20.686 99.6786 19.0777 98.0461C17.4694 96.4136 17.4834 93.7678 19.1218 92.1537L30.9948 80.4571L35.381 84.9095ZM1.66509 62.5595L7.74999 56.565C8.18773 57.1281 8.56654 57.6907 9.06365 58.1953L13.4499 62.6477L7.5134 68.496C5.88086 70.1043 3.22929 70.0844 1.621 68.4519C0.0127214 66.8193 0.0325616 64.1678 1.66509 62.5595ZM10.3494 83.249C8.74108 81.6165 8.76092 78.9649 10.3935 77.3566L19.2982 68.5842L25.1465 74.5206L16.2418 83.2931C14.6092 84.9014 11.9577 84.8815 10.3494 83.249Z" fill="#3AD3CD"/>
</svg>
