<svg width="50" height="50" viewBox="0 0 50 50" fill="none" xmlns="http://www.w3.org/2000/svg">
<g clip-path="url(#clip0_6_87)">
<path d="M41.0563 8.20833C41.4634 7.51667 42.121 7.00815 42.8928 6.78816C43.6647 6.56817 44.4916 6.65358 45.2021 7.02668C45.9127 7.39978 46.4525 8.03198 46.7097 8.79225C46.9668 9.55252 46.9216 10.3826 46.5833 11.1104L46.4438 11.3771L27.6938 43.2521C27.4306 43.6993 27.0603 44.0739 26.6162 44.3421C26.1721 44.6104 25.6681 44.7638 25.1499 44.7887C24.6316 44.8135 24.1153 44.7088 23.6476 44.4842C23.1799 44.2596 22.7755 43.9221 22.4708 43.5021L22.3063 43.2521L3.55626 11.3771C3.14689 10.685 3.02005 9.86177 3.2021 9.07857C3.38415 8.29536 3.8611 7.61248 4.53375 7.17191C5.20639 6.73135 6.02298 6.56703 6.81368 6.71311C7.60438 6.85919 8.30835 7.30443 8.77918 7.95625L8.94376 8.20625L25 35.5062L41.0563 8.20833ZM30.8896 8.19791C31.2967 7.50625 31.9543 6.99773 32.7262 6.77774C33.498 6.55775 34.3249 6.64316 35.0355 7.01626C35.7461 7.38937 36.2859 8.02156 36.543 8.78183C36.8001 9.5421 36.7549 10.3722 36.4167 11.1L36.2771 11.3667L27.6938 25.9583C27.4308 26.4056 27.0606 26.7804 26.6166 27.0489C26.1726 27.3173 25.6687 27.471 25.1504 27.496C24.6322 27.521 24.1158 27.4166 23.648 27.1921C23.1802 26.9677 22.7757 26.6303 22.4708 26.2104L22.3063 25.9604L13.7292 11.375C13.3198 10.6829 13.193 9.85969 13.375 9.07648C13.5571 8.29328 14.034 7.61039 14.7067 7.16983C15.3793 6.72927 16.1959 6.56494 16.9866 6.71102C17.7773 6.8571 18.4813 7.30235 18.9521 7.95416L19.1167 8.20416L25 18.2146L30.8896 8.19791Z" fill="#104455"/>
</g>
<defs>
<clipPath id="clip0_6_87">
<rect width="50" height="50" fill="white"/>
</clipPath>
</defs>
</svg>
