<svg width="183" height="85" viewBox="0 0 183 85" fill="none" xmlns="http://www.w3.org/2000/svg">
<rect width="183" height="85" rx="20" fill="#3AD3CD" fill-opacity="0.4"/>
<path d="M24.1378 31V17.9091H32.8054V20.1911H26.9055V23.3104H32.2301V25.5923H26.9055V31H24.1378ZM34.4577 31V21.1818H37.0977V22.8949H37.1999C37.3789 22.2855 37.6793 21.8253 38.1012 21.5142C38.5231 21.1989 39.0089 21.0412 39.5586 21.0412C39.695 21.0412 39.842 21.0497 39.9996 21.0668C40.1573 21.0838 40.2958 21.1072 40.4151 21.1371V23.5533C40.2873 23.5149 40.1104 23.4808 39.8846 23.451C39.6587 23.4212 39.4521 23.4062 39.2646 23.4062C38.864 23.4062 38.506 23.4936 38.1907 23.6683C37.8796 23.8388 37.6325 24.0774 37.4492 24.3842C37.2702 24.6911 37.1808 25.0447 37.1808 25.4453V31H34.4577ZM45.8404 31.1918C44.8304 31.1918 43.9611 30.9872 43.2324 30.5781C42.508 30.1648 41.9498 29.581 41.5577 28.8267C41.1657 28.0682 40.9696 27.1712 40.9696 26.1357C40.9696 25.1257 41.1657 24.2393 41.5577 23.4766C41.9498 22.7138 42.5016 22.1193 43.2132 21.6932C43.9292 21.267 44.7686 21.054 45.7317 21.054C46.3794 21.054 46.9824 21.1584 47.5407 21.3672C48.1032 21.5717 48.5932 21.8807 49.0108 22.294C49.4327 22.7074 49.7608 23.2273 49.9952 23.8537C50.2296 24.4759 50.3468 25.2045 50.3468 26.0398V26.7876H42.0563V25.1001H47.7836C47.7836 24.7081 47.6983 24.3608 47.5279 24.0582C47.3574 23.7557 47.1209 23.5192 46.8184 23.3487C46.5201 23.174 46.1728 23.0866 45.7765 23.0866C45.3631 23.0866 44.9966 23.1825 44.677 23.3743C44.3617 23.5618 44.1145 23.8153 43.9355 24.1349C43.7566 24.4503 43.665 24.8018 43.6607 25.1896V26.794C43.6607 27.2798 43.7502 27.6996 43.9292 28.0533C44.1124 28.407 44.3702 28.6797 44.7026 28.8714C45.035 29.0632 45.4292 29.1591 45.8851 29.1591C46.1877 29.1591 46.4647 29.1165 46.7161 29.0312C46.9675 28.946 47.1827 28.8182 47.3617 28.6477C47.5407 28.4773 47.677 28.2685 47.7708 28.0213L50.2892 28.1875C50.1614 28.7926 49.8993 29.321 49.503 29.7727C49.111 30.2202 48.6039 30.5696 47.9817 30.821C47.3638 31.0682 46.65 31.1918 45.8404 31.1918ZM56.5982 31.1918C55.5882 31.1918 54.7189 30.9872 53.9902 30.5781C53.2658 30.1648 52.7076 29.581 52.3155 28.8267C51.9235 28.0682 51.7275 27.1712 51.7275 26.1357C51.7275 25.1257 51.9235 24.2393 52.3155 23.4766C52.7076 22.7138 53.2594 22.1193 53.9711 21.6932C54.687 21.267 55.5265 21.054 56.4895 21.054C57.1373 21.054 57.7402 21.1584 58.2985 21.3672C58.861 21.5717 59.351 21.8807 59.7686 22.294C60.1905 22.7074 60.5186 23.2273 60.753 23.8537C60.9874 24.4759 61.1046 25.2045 61.1046 26.0398V26.7876H52.8141V25.1001H58.5414C58.5414 24.7081 58.4561 24.3608 58.2857 24.0582C58.1152 23.7557 57.8787 23.5192 57.5762 23.3487C57.2779 23.174 56.9306 23.0866 56.5343 23.0866C56.1209 23.0866 55.7544 23.1825 55.4348 23.3743C55.1195 23.5618 54.8723 23.8153 54.6934 24.1349C54.5144 24.4503 54.4228 24.8018 54.4185 25.1896V26.794C54.4185 27.2798 54.508 27.6996 54.687 28.0533C54.8702 28.407 55.128 28.6797 55.4604 28.8714C55.7928 29.0632 56.187 29.1591 56.6429 29.1591C56.9455 29.1591 57.2225 29.1165 57.4739 29.0312C57.7253 28.946 57.9405 28.8182 58.1195 28.6477C58.2985 28.4773 58.4348 28.2685 58.5286 28.0213L61.0471 28.1875C60.9192 28.7926 60.6571 29.321 60.2608 29.7727C59.8688 30.2202 59.3617 30.5696 58.7395 30.821C58.1216 31.0682 57.4078 31.1918 56.5982 31.1918ZM67.0476 31V21.1818H69.6428V22.9141H69.7578C69.9624 22.3388 70.3033 21.8849 70.7805 21.5526C71.2578 21.2202 71.8288 21.054 72.4936 21.054C73.1669 21.054 73.7401 21.2223 74.2131 21.5589C74.6861 21.8913 75.0014 22.343 75.1591 22.9141H75.2614C75.4616 22.3516 75.8239 21.902 76.348 21.5653C76.8764 21.2244 77.5007 21.054 78.2209 21.054C79.1371 21.054 79.8807 21.3459 80.4517 21.9297C81.027 22.5092 81.3146 23.3317 81.3146 24.397V31H78.598V24.9339C78.598 24.3885 78.4531 23.9794 78.1634 23.7067C77.8736 23.4339 77.5114 23.2976 77.0767 23.2976C76.5824 23.2976 76.1967 23.4553 75.9197 23.7706C75.6428 24.0817 75.5043 24.4929 75.5043 25.0043V31H72.8643V24.8764C72.8643 24.3949 72.7259 24.0114 72.4489 23.7259C72.1761 23.4403 71.8161 23.2976 71.3686 23.2976C71.0661 23.2976 70.7933 23.3743 70.5504 23.5277C70.3118 23.6768 70.1222 23.8878 69.9815 24.1605C69.8409 24.429 69.7706 24.7443 69.7706 25.1065V31H67.0476ZM87.94 31.1918C86.93 31.1918 86.0607 30.9872 85.332 30.5781C84.6076 30.1648 84.0494 29.581 83.6573 28.8267C83.2653 28.0682 83.0692 27.1712 83.0692 26.1357C83.0692 25.1257 83.2653 24.2393 83.6573 23.4766C84.0494 22.7138 84.6012 22.1193 85.3129 21.6932C86.0288 21.267 86.8683 21.054 87.8313 21.054C88.479 21.054 89.082 21.1584 89.6403 21.3672C90.2028 21.5717 90.6928 21.8807 91.1104 22.294C91.5323 22.7074 91.8604 23.2273 92.0948 23.8537C92.3292 24.4759 92.4464 25.2045 92.4464 26.0398V26.7876H84.1559V25.1001H89.8832C89.8832 24.7081 89.7979 24.3608 89.6275 24.0582C89.457 23.7557 89.2205 23.5192 88.918 23.3487C88.6197 23.174 88.2724 23.0866 87.8761 23.0866C87.4627 23.0866 87.0962 23.1825 86.7766 23.3743C86.4613 23.5618 86.2141 23.8153 86.0352 24.1349C85.8562 24.4503 85.7646 24.8018 85.7603 25.1896V26.794C85.7603 27.2798 85.8498 27.6996 86.0288 28.0533C86.212 28.407 86.4698 28.6797 86.8022 28.8714C87.1346 29.0632 87.5288 29.1591 87.9847 29.1591C88.2873 29.1591 88.5643 29.1165 88.8157 29.0312C89.0671 28.946 89.2823 28.8182 89.4613 28.6477C89.6403 28.4773 89.7766 28.2685 89.8704 28.0213L92.3889 28.1875C92.261 28.7926 91.9989 29.321 91.6026 29.7727C91.2106 30.2202 90.7035 30.5696 90.0813 30.821C89.4634 31.0682 88.7496 31.1918 87.94 31.1918ZM96.9464 25.3239V31H94.2234V21.1818H96.8185V22.9141H96.9336C97.1509 22.343 97.5153 21.8913 98.0266 21.5589C98.538 21.2223 99.158 21.054 99.8867 21.054C100.569 21.054 101.163 21.2031 101.67 21.5014C102.177 21.7997 102.571 22.2259 102.853 22.7798C103.134 23.3295 103.275 23.9858 103.275 24.7486V31H100.551V25.2344C100.556 24.6335 100.402 24.1648 100.091 23.8281C99.7802 23.4872 99.3519 23.3168 98.8065 23.3168C98.44 23.3168 98.1161 23.3956 97.8349 23.5533C97.5579 23.7109 97.3406 23.9411 97.1829 24.2436C97.0295 24.5419 96.9506 24.902 96.9464 25.3239ZM110.643 21.1818V23.2273H104.73V21.1818H110.643ZM106.073 18.8295H108.796V27.983C108.796 28.2344 108.834 28.4304 108.911 28.571C108.987 28.7074 109.094 28.8033 109.23 28.8587C109.371 28.9141 109.533 28.9418 109.716 28.9418C109.844 28.9418 109.972 28.9311 110.1 28.9098C110.227 28.8842 110.325 28.8651 110.394 28.8523L110.822 30.8786C110.686 30.9212 110.494 30.9702 110.247 31.0256C109.999 31.0852 109.699 31.1214 109.345 31.1342C108.689 31.1598 108.114 31.0724 107.619 30.8722C107.129 30.6719 106.748 30.3608 106.475 29.9389C106.203 29.517 106.068 28.9844 106.073 28.3409V18.8295ZM116.747 31.1918C115.754 31.1918 114.896 30.9808 114.171 30.5589C113.451 30.1328 112.895 29.5405 112.503 28.782C112.111 28.0192 111.915 27.1349 111.915 26.1293C111.915 25.1151 112.111 24.2287 112.503 23.4702C112.895 22.7074 113.451 22.1151 114.171 21.6932C114.896 21.267 115.754 21.054 116.747 21.054C117.74 21.054 118.597 21.267 119.317 21.6932C120.041 22.1151 120.6 22.7074 120.992 23.4702C121.384 24.2287 121.58 25.1151 121.58 26.1293C121.58 27.1349 121.384 28.0192 120.992 28.782C120.6 29.5405 120.041 30.1328 119.317 30.5589C118.597 30.9808 117.74 31.1918 116.747 31.1918ZM116.76 29.0824C117.212 29.0824 117.589 28.9545 117.892 28.6989C118.194 28.4389 118.422 28.0852 118.575 27.6378C118.733 27.1903 118.812 26.6811 118.812 26.1101C118.812 25.5391 118.733 25.0298 118.575 24.5824C118.422 24.1349 118.194 23.7812 117.892 23.5213C117.589 23.2614 117.212 23.1314 116.76 23.1314C116.304 23.1314 115.921 23.2614 115.61 23.5213C115.303 23.7812 115.07 24.1349 114.913 24.5824C114.759 25.0298 114.683 25.5391 114.683 26.1101C114.683 26.6811 114.759 27.1903 114.913 27.6378C115.07 28.0852 115.303 28.4389 115.61 28.6989C115.921 28.9545 116.304 29.0824 116.76 29.0824ZM123.35 31V21.1818H125.99V22.8949H126.093C126.271 22.2855 126.572 21.8253 126.994 21.5142C127.416 21.1989 127.901 21.0412 128.451 21.0412C128.588 21.0412 128.735 21.0497 128.892 21.0668C129.05 21.0838 129.188 21.1072 129.308 21.1371V23.5533C129.18 23.5149 129.003 23.4808 128.777 23.451C128.551 23.4212 128.345 23.4062 128.157 23.4062C127.757 23.4062 127.399 23.4936 127.083 23.6683C126.772 23.8388 126.525 24.0774 126.342 24.3842C126.163 24.6911 126.073 25.0447 126.073 25.4453V31H123.35ZM138.885 23.9815L136.392 24.1349C136.349 23.9219 136.257 23.7301 136.117 23.5597C135.976 23.3849 135.791 23.2464 135.561 23.1442C135.335 23.0376 135.064 22.9844 134.749 22.9844C134.327 22.9844 133.971 23.0739 133.681 23.2528C133.392 23.4276 133.247 23.6619 133.247 23.956C133.247 24.1903 133.341 24.3885 133.528 24.5504C133.716 24.7124 134.037 24.8423 134.493 24.9403L136.27 25.2983C137.225 25.4943 137.936 25.8097 138.405 26.2443C138.874 26.679 139.108 27.25 139.108 27.9574C139.108 28.6009 138.919 29.1655 138.539 29.6513C138.164 30.1371 137.649 30.5163 136.993 30.7891C136.341 31.0575 135.588 31.1918 134.736 31.1918C133.436 31.1918 132.401 30.9212 131.63 30.38C130.863 29.8345 130.413 29.093 130.281 28.1555L132.959 28.0149C133.04 28.4112 133.236 28.7138 133.547 28.9226C133.858 29.1271 134.257 29.2294 134.743 29.2294C135.22 29.2294 135.603 29.1378 135.893 28.9545C136.187 28.767 136.336 28.5263 136.341 28.2322C136.336 27.9851 136.232 27.7827 136.027 27.625C135.823 27.4631 135.507 27.3395 135.081 27.2543L133.381 26.9155C132.422 26.7237 131.708 26.3913 131.24 25.9183C130.775 25.4453 130.543 24.8423 130.543 24.1094C130.543 23.4787 130.713 22.9354 131.054 22.4794C131.4 22.0234 131.883 21.6719 132.505 21.4247C133.132 21.1776 133.865 21.054 134.704 21.054C135.944 21.054 136.92 21.3161 137.632 21.8402C138.348 22.3643 138.765 23.0781 138.885 23.9815ZM143.546 25.3239V31H140.823V17.9091H143.469V22.9141H143.584C143.806 22.3345 144.164 21.8807 144.658 21.5526C145.153 21.2202 145.773 21.054 146.518 21.054C147.2 21.054 147.795 21.2031 148.302 21.5014C148.813 21.7955 149.209 22.2195 149.491 22.7734C149.776 23.3232 149.917 23.9815 149.912 24.7486V31H147.189V25.2344C147.194 24.6293 147.04 24.1584 146.729 23.8217C146.422 23.4851 145.992 23.3168 145.438 23.3168C145.067 23.3168 144.739 23.3956 144.454 23.5533C144.172 23.7109 143.951 23.9411 143.789 24.2436C143.631 24.5419 143.55 24.902 143.546 25.3239ZM152.055 31V21.1818H154.778V31H152.055ZM153.423 19.9162C153.018 19.9162 152.671 19.782 152.381 19.5135C152.096 19.2408 151.953 18.9148 151.953 18.5355C151.953 18.1605 152.096 17.8388 152.381 17.5703C152.671 17.2976 153.018 17.1612 153.423 17.1612C153.828 17.1612 154.173 17.2976 154.459 17.5703C154.749 17.8388 154.893 18.1605 154.893 18.5355C154.893 18.9148 154.749 19.2408 154.459 19.5135C154.173 19.782 153.828 19.9162 153.423 19.9162ZM156.96 34.6818V21.1818H159.644V22.831H159.766C159.885 22.5668 160.058 22.2983 160.284 22.0256C160.514 21.7486 160.812 21.5185 161.178 21.3352C161.549 21.1477 162.009 21.054 162.559 21.054C163.275 21.054 163.936 21.2415 164.541 21.6165C165.146 21.9872 165.629 22.5476 165.992 23.2976C166.354 24.0433 166.535 24.9787 166.535 26.1037C166.535 27.1989 166.358 28.1236 166.004 28.8778C165.655 29.6278 165.178 30.1967 164.573 30.5845C163.972 30.968 163.298 31.1598 162.553 31.1598C162.024 31.1598 161.575 31.0724 161.204 30.8977C160.838 30.723 160.537 30.5036 160.303 30.2393C160.068 29.9709 159.889 29.7003 159.766 29.4276H159.683V34.6818H156.96ZM159.625 26.0909C159.625 26.6747 159.706 27.1839 159.868 27.6186C160.03 28.0533 160.264 28.392 160.571 28.6349C160.878 28.8736 161.251 28.9929 161.69 28.9929C162.133 28.9929 162.508 28.8714 162.815 28.6286C163.122 28.3814 163.354 28.0405 163.512 27.6058C163.673 27.1669 163.754 26.6619 163.754 26.0909C163.754 25.5241 163.676 25.0256 163.518 24.5952C163.36 24.1648 163.128 23.8281 162.821 23.5852C162.514 23.3423 162.137 23.2209 161.69 23.2209C161.247 23.2209 160.872 23.3381 160.565 23.5724C160.262 23.8068 160.03 24.1392 159.868 24.5696C159.706 25 159.625 25.5071 159.625 26.0909Z" fill="#0A3442"/>
<path d="M89.4746 65H88.0391L87.0957 62.3271C86.9271 61.8532 86.6468 61.4658 86.2549 61.165C85.863 60.8643 85.4118 60.7139 84.9014 60.7139H82.4473V65H81.1211V54.9785H85.5576C86.3324 54.9785 86.9658 55.0537 87.458 55.2041C87.9502 55.3545 88.3512 55.6712 88.6611 56.1543C88.971 56.6374 89.126 57.182 89.126 57.7881C89.126 58.4808 88.9255 59.0596 88.5244 59.5244C88.1234 59.9893 87.5742 60.2923 86.877 60.4336V60.4609C87.5742 60.6842 88.1051 61.2881 88.4697 62.2725L89.4746 65ZM82.4473 59.5244H85.4072C86.2321 59.5244 86.8291 59.3945 87.1982 59.1348C87.5719 58.875 87.7588 58.4261 87.7588 57.7881C87.7588 56.6488 87.0433 56.0791 85.6123 56.0791H82.4473V59.5244ZM94.1504 65.1709C93.084 65.1709 92.2272 64.8382 91.5801 64.1729C90.9329 63.5029 90.6094 62.571 90.6094 61.377C90.6094 60.1921 90.9215 59.2646 91.5459 58.5947C92.1748 57.9202 92.9951 57.583 94.0068 57.583C95.0413 57.583 95.8662 57.9134 96.4814 58.5742C97.1012 59.235 97.4111 60.1693 97.4111 61.377V61.6846H91.9492C92.0039 62.5231 92.234 63.1452 92.6396 63.5508C93.0498 63.9564 93.5534 64.1592 94.1504 64.1592C94.6016 64.1592 95.0072 64.0452 95.3672 63.8174C95.7318 63.585 95.9232 63.2568 95.9414 62.833H97.2744C97.1742 63.5804 96.8346 64.1569 96.2559 64.5625C95.6816 64.9681 94.9798 65.1709 94.1504 65.1709ZM96.0508 60.6729C95.946 59.9756 95.7113 59.4538 95.3467 59.1074C94.9821 58.7611 94.5355 58.5879 94.0068 58.5879C93.4919 58.5879 93.0498 58.7611 92.6807 59.1074C92.3115 59.4492 92.0768 59.971 91.9766 60.6729H96.0508ZM104.739 64.4395C104.739 66.7728 103.687 67.9395 101.581 67.9395C100.67 67.9395 99.9495 67.7412 99.4209 67.3447C98.8968 66.9482 98.6348 66.415 98.6348 65.7451H99.9678C99.9678 66.5381 100.501 66.9346 101.567 66.9346C102.169 66.9346 102.634 66.7682 102.962 66.4355C103.29 66.1074 103.454 65.4603 103.454 64.4941V64.1318C102.88 64.8245 102.189 65.1709 101.383 65.1709C100.435 65.1709 99.7012 64.8337 99.1816 64.1592C98.6621 63.4847 98.4023 62.5755 98.4023 61.4316C98.4023 60.2467 98.6917 59.3102 99.2705 58.6221C99.8538 57.9294 100.585 57.583 101.465 57.583C102.249 57.583 102.912 57.8245 103.454 58.3076V57.7471H104.739V64.4395ZM103.454 62.915V59.4697C102.898 58.8818 102.262 58.5879 101.547 58.5879C100.995 58.5879 100.553 58.8271 100.221 59.3057C99.8926 59.7796 99.7285 60.4883 99.7285 61.4316C99.7285 62.3249 99.8835 63.0039 100.193 63.4688C100.508 63.929 100.941 64.1592 101.492 64.1592C102.212 64.1592 102.866 63.7445 103.454 62.915ZM107.945 65H106.653V57.7471H107.945V65ZM107.945 56.373H106.653V54.9785H107.945V56.373ZM112.443 65.1709C110.461 65.1709 109.424 64.3916 109.333 62.833H110.625C110.634 63.7171 111.236 64.1592 112.43 64.1592C112.963 64.1592 113.368 64.0498 113.646 63.8311C113.929 63.6077 114.07 63.3298 114.07 62.9971C114.07 62.6689 113.934 62.4388 113.66 62.3066C113.387 62.1699 112.822 61.9945 111.965 61.7803C111.113 61.5661 110.488 61.3268 110.092 61.0625C109.7 60.7982 109.504 60.3333 109.504 59.668C109.504 59.0664 109.748 58.5697 110.235 58.1777C110.728 57.7812 111.384 57.583 112.204 57.583C114.104 57.583 115.075 58.2598 115.116 59.6133H113.831C113.785 58.9297 113.273 58.5879 112.293 58.5879C111.86 58.5879 111.5 58.6699 111.213 58.834C110.93 58.998 110.789 59.2373 110.789 59.5518C110.789 59.8343 110.898 60.0394 111.117 60.167C111.336 60.29 111.883 60.4587 112.758 60.6729C113.637 60.8825 114.289 61.1286 114.713 61.4111C115.141 61.6937 115.355 62.1813 115.355 62.874C115.355 63.5348 115.091 64.084 114.562 64.5215C114.038 64.9544 113.332 65.1709 112.443 65.1709ZM119.669 65.0137C119.386 65.0684 119.079 65.0957 118.746 65.0957C118.217 65.0957 117.83 65.0023 117.584 64.8154C117.338 64.624 117.185 64.3802 117.126 64.084C117.067 63.7878 117.037 63.3844 117.037 62.874V58.7588H116.142V57.7471H117.037V55.9424H118.322V57.7471H119.498V58.7588H118.322V62.9424C118.322 63.4391 118.384 63.7559 118.507 63.8926C118.634 64.0247 118.808 64.0908 119.026 64.0908C119.25 64.0908 119.464 64.0726 119.669 64.0361V65.0137ZM123.832 65.1709C122.766 65.1709 121.909 64.8382 121.262 64.1729C120.615 63.5029 120.291 62.571 120.291 61.377C120.291 60.1921 120.603 59.2646 121.228 58.5947C121.856 57.9202 122.677 57.583 123.688 57.583C124.723 57.583 125.548 57.9134 126.163 58.5742C126.783 59.235 127.093 60.1693 127.093 61.377V61.6846H121.631C121.686 62.5231 121.916 63.1452 122.321 63.5508C122.731 63.9564 123.235 64.1592 123.832 64.1592C124.283 64.1592 124.689 64.0452 125.049 63.8174C125.413 63.585 125.605 63.2568 125.623 62.833H126.956C126.856 63.5804 126.516 64.1569 125.938 64.5625C125.363 64.9681 124.661 65.1709 123.832 65.1709ZM125.732 60.6729C125.628 59.9756 125.393 59.4538 125.028 59.1074C124.664 58.7611 124.217 58.5879 123.688 58.5879C123.174 58.5879 122.731 58.7611 122.362 59.1074C121.993 59.4492 121.758 59.971 121.658 60.6729H125.732ZM132.309 58.9229C132.126 58.8682 131.864 58.8408 131.522 58.8408C130.866 58.8408 130.303 59.1849 129.834 59.873V65H128.542V57.7471H129.834V58.7588C130.376 57.9749 131.005 57.583 131.721 57.583C131.903 57.583 132.099 57.6012 132.309 57.6377V58.9229ZM138.215 58.6699C138.857 57.9453 139.58 57.583 140.382 57.583C142.018 57.583 142.836 58.474 142.836 60.2559V65H141.544V60.3105C141.544 59.7181 141.437 59.292 141.223 59.0322C141.013 58.7725 140.667 58.6426 140.184 58.6426C139.527 58.6426 138.871 59.0299 138.215 59.8047V65H136.923V57.7471H138.215V58.6699ZM147.655 57.583C148.69 57.583 149.515 57.9134 150.13 58.5742C150.75 59.235 151.06 60.1693 151.06 61.377C151.06 62.5801 150.75 63.5143 150.13 64.1797C149.515 64.8405 148.69 65.1709 147.655 65.1709C146.625 65.1709 145.8 64.8405 145.181 64.1797C144.565 63.5143 144.258 62.5801 144.258 61.377C144.258 60.1693 144.565 59.235 145.181 58.5742C145.8 57.9134 146.625 57.583 147.655 57.583ZM147.655 64.1592C148.271 64.1592 148.77 63.9268 149.152 63.4619C149.535 62.9925 149.727 62.2975 149.727 61.377C149.727 60.4518 149.535 59.7568 149.152 59.292C148.77 58.8226 148.271 58.5879 147.655 58.5879C147.04 58.5879 146.541 58.8226 146.158 59.292C145.775 59.7568 145.584 60.4518 145.584 61.377C145.584 62.2975 145.775 62.9925 146.158 63.4619C146.541 63.9268 147.04 64.1592 147.655 64.1592ZM161.594 57.7471L159.413 65H158.183L156.61 59.668L155.045 65H153.814L151.627 57.7471H153.056L154.389 63.2773L156.022 57.7471H157.198L158.839 63.2773L160.172 57.7471H161.594Z" fill="#0A3442"/>
<path d="M80 66.8525H161.669V67.5498H80V66.8525Z" fill="#0A3442"/>
<path d="M178.707 61.7071C179.098 61.3166 179.098 60.6834 178.707 60.2929L172.343 53.9289C171.953 53.5384 171.319 53.5384 170.929 53.9289C170.538 54.3195 170.538 54.9526 170.929 55.3431L176.586 61L170.929 66.6569C170.538 67.0474 170.538 67.6805 170.929 68.0711C171.319 68.4616 171.953 68.4616 172.343 68.0711L178.707 61.7071ZM164 62H178V60H164V62Z" fill="#0A3442"/>
<path d="M40.6812 66.0146C41.4937 66.0146 42.1521 66.6688 42.1521 67.4729C42.1513 67.6653 42.1126 67.8555 42.0382 68.0329C41.9639 68.2103 41.8553 68.3713 41.7187 68.5067C41.5821 68.6421 41.4202 68.7493 41.2422 68.8222C41.0642 68.895 40.8736 68.9321 40.6812 68.9313H34.7333C34.5408 68.9324 34.35 68.8955 34.1717 68.8228C33.9935 68.75 33.8313 68.6429 33.6945 68.5074C33.5577 68.372 33.449 68.2109 33.3745 68.0334C33.3 67.8559 33.2612 67.6654 33.2604 67.4729C33.2604 66.6688 33.9208 66.0146 34.7333 66.0146H40.6812ZM42.1187 60.6125C42.9312 60.6125 43.5896 61.2688 43.5896 62.0708C43.5888 62.2633 43.55 62.4538 43.4755 62.6313C43.401 62.8088 43.2923 62.9699 43.1555 63.1054C43.0187 63.2408 42.8565 63.348 42.6783 63.4207C42.5 63.4934 42.3092 63.5303 42.1167 63.5292H34.7667C34.5743 63.53 34.3837 63.4929 34.2057 63.4201C34.0277 63.3472 33.8658 63.24 33.7292 63.1046C33.5926 62.9692 33.4841 62.8082 33.4097 62.6308C33.3353 62.4535 33.2967 62.2632 33.2958 62.0708C33.2958 61.2667 33.9542 60.6125 34.7667 60.6125H42.1187ZM50.1687 53.4042C50.1743 52.2392 50.6422 51.1242 51.4696 50.3041C52.2971 49.4841 53.4163 49.0263 54.5812 49.0313C55.1582 49.0288 55.7301 49.14 56.2641 49.3585C56.7981 49.577 57.2839 49.8986 57.6936 50.3049C58.1033 50.7111 58.4291 51.1941 58.6521 51.7263C58.8752 52.2584 58.9913 52.8293 58.9937 53.4063C58.9871 54.5716 58.5191 55.6869 57.6922 56.508C56.8652 57.3291 55.7466 57.7892 54.5812 57.7875C53.4157 57.7886 52.2971 57.3281 51.4702 56.5067C50.6433 55.6852 50.1754 54.5697 50.1687 53.4042ZM63.2083 67.0688C63.4167 68.3583 62.4208 69.5271 61.1146 69.5229H48.0479C47.7411 69.5235 47.4377 69.4574 47.159 69.3291C46.8802 69.2008 46.6326 69.0135 46.4335 68.78C46.2343 68.5466 46.0883 68.2726 46.0055 67.9771C45.9228 67.6816 45.9052 67.3717 45.9542 67.0688C46.6104 63.0229 48.8521 59.7583 51.7792 58.4646C52.6362 58.9411 53.6006 59.1911 54.5812 59.1911C55.5619 59.1911 56.5263 58.9411 57.3833 58.4646C60.3104 59.7583 62.5542 63.0271 63.2083 67.0688ZM45.0583 58.1313C27.6 58.1313 44.7521 58.1271 34.7646 58.1271C34.5721 58.1282 34.3812 58.0913 34.203 58.0186C34.0247 57.9459 33.8626 57.8387 33.7258 57.7033C33.589 57.5678 33.4802 57.4067 33.4057 57.2292C33.3312 57.0517 33.2925 56.8613 33.2917 56.6688C33.2917 55.8646 33.9521 55.2104 34.7646 55.2104L45.0583 55.2125C45.8708 55.2125 46.5312 55.8667 46.5292 56.6729C46.5286 56.8653 46.4901 57.0557 46.4159 57.2332C46.3416 57.4107 46.233 57.5718 46.0964 57.7073C45.9598 57.8428 45.7977 57.95 45.6196 58.0227C45.4415 58.0955 45.2507 58.1323 45.0583 58.1313ZM34.7667 52.7271C34.5741 52.7285 34.3831 52.6918 34.2048 52.6192C34.0264 52.5465 33.8641 52.4394 33.7273 52.3039C33.5904 52.1684 33.4817 52.0072 33.4073 51.8296C33.3329 51.6519 33.2943 51.4613 33.2937 51.2688C33.2937 50.4646 33.9542 49.8104 34.7667 49.8104H45.0583C45.8687 49.8104 46.5271 50.4625 46.5271 51.2688C46.5249 51.6568 46.3687 52.0282 46.093 52.3012C45.8172 52.5742 45.4443 52.7267 45.0562 52.725L34.7667 52.7271ZM51.0354 73.8042C51.3983 73.8053 51.7468 73.6625 52.0045 73.4071C52.2622 73.1517 52.4082 72.8045 52.4104 72.4417H67.1187V46.1917H28.8833V72.4396H43.5896C43.5896 73.1917 44.2042 73.8021 44.9646 73.8021L51.0354 73.8042ZM73 72.4417V74.4354C73 75.6958 71.9667 76.7188 70.6958 76.7188H25.3042C24.0333 76.7188 23 75.6979 23 74.4354V72.4417H25.9437V46.1604C25.9437 44.5708 27.2417 43.2812 28.8479 43.2812H67.1542C68.7583 43.2812 70.0583 44.5708 70.0583 46.1604V72.4417H73Z" fill="#0A3442"/>
</svg>
