<svg width="50" height="50" viewBox="0 0 50 50" fill="none" xmlns="http://www.w3.org/2000/svg">
<path d="M12.5 6.25C10.8424 6.25 9.25269 6.90848 8.08058 8.08058C6.90848 9.25269 6.25 10.8424 6.25 12.5V37.5C6.25 39.1576 6.90848 40.7473 8.08058 41.9194C9.25269 43.0915 10.8424 43.75 12.5 43.75H37.5C39.1576 43.75 40.7473 43.0915 41.9194 41.9194C43.0915 40.7473 43.75 39.1576 43.75 37.5V12.5C43.75 10.8424 43.0915 9.25269 41.9194 8.08058C40.7473 6.90848 39.1576 6.25 37.5 6.25H12.5ZM27.7792 33.4479C29.2792 34.6562 30.775 35.25 32.2708 35.2354C33.1875 35.2354 33.8917 35.0687 34.3792 34.7312C34.6068 34.5835 34.792 34.379 34.9166 34.1379C35.0411 33.8968 35.1008 33.6274 35.0896 33.3562C35.0926 33.0605 35.0307 32.7677 34.9084 32.4985C34.786 32.2292 34.6061 31.9901 34.3813 31.7979C33.8917 31.3708 32.9667 30.9438 31.6062 30.5146C29.9729 30.0417 28.7104 29.4312 27.825 28.6812C26.9542 27.9312 26.5125 26.8854 26.4958 25.5417C26.4958 24.2729 27.0458 23.2125 28.1458 22.3562C29.2167 21.5021 30.5833 21.0729 32.25 21.0729C34.5708 21.0729 36.4354 21.6375 37.8396 22.7687L36.2354 25.2667C35.6579 24.8174 34.9952 24.49 34.2875 24.3042C33.6515 24.0914 32.9871 23.9756 32.3167 23.9604C31.525 23.9604 30.8896 24.1062 30.4146 24.3958C29.9417 24.6875 29.7062 25.0688 29.7062 25.5417C29.7062 26.0625 29.9958 26.5042 30.575 26.8708C31.1583 27.2229 32.15 27.6125 33.5542 28.0396C35.25 28.5437 36.4583 29.2167 37.175 30.0562C37.8937 30.8958 38.2521 31.9667 38.2521 33.2646C38.2521 34.5937 37.7417 35.7396 36.7167 36.7021C35.7083 37.65 34.2417 38.1458 32.3167 38.1917C29.7958 38.1917 27.6875 37.4354 25.9917 35.9229L27.7792 33.4479ZM16.2583 34.7771C16.7479 35.0833 17.3354 35.2354 18.0229 35.2354C18.7417 35.2354 19.3354 35.0292 19.8104 34.6167C20.2833 34.1896 20.5208 33.4479 20.5208 32.3937V21.3479H23.6146V32.9896C23.5687 34.7917 23.05 36.0917 22.0562 36.8854C21.514 37.3465 20.8819 37.6898 20.2 37.8937C19.5684 38.0862 18.9123 38.1865 18.2521 38.1917C17.1062 38.1917 16.0896 37.9937 15.2042 37.5958C14.2562 37.1687 13.4625 36.4125 12.8208 35.3271L14.975 33.5625C15.3708 34.0979 15.8 34.5021 16.2583 34.7771Z" fill="#104455"/>
</svg>
