<svg width="50" height="50" viewBox="0 0 50 50" fill="none" xmlns="http://www.w3.org/2000/svg">
<path d="M25.0021 28.125C24.1733 28.125 23.3784 27.7958 22.7924 27.2097C22.2063 26.6237 21.8771 25.8288 21.8771 25C21.8771 24.1712 22.2063 23.3763 22.7924 22.7903C23.3784 22.2042 24.1733 21.875 25.0021 21.875C25.8309 21.875 26.6258 22.2042 27.2118 22.7903C27.7979 23.3763 28.1271 24.1712 28.1271 25C28.1271 25.8288 27.7979 26.6237 27.2118 27.2097C26.6258 27.7958 25.8309 28.125 25.0021 28.125ZM23.9021 34.3625C24.2667 34.8021 24.6313 35.225 25.0021 35.6313C25.3708 35.225 25.7375 34.8021 26.1021 34.3625C25.3688 34.378 24.6353 34.378 23.9021 34.3625ZM19.7458 34.1021C18.146 33.9363 16.5567 33.681 14.9854 33.3375C14.8338 34.0363 14.7156 34.742 14.6313 35.4521C14.2354 38.75 14.7875 40.7542 15.6271 41.2375C16.4667 41.7229 18.4771 41.1979 21.1375 39.2083C21.6854 38.7979 22.2375 38.3417 22.7917 37.8438C21.7073 36.6544 20.6904 35.4053 19.7458 34.1021ZM35.0188 33.3375C33.4475 33.681 31.8582 33.9362 30.2583 34.1021C29.3138 35.4053 28.2969 36.6544 27.2125 37.8438C27.7667 38.3438 28.3188 38.7979 28.8667 39.2083C31.5271 41.1979 33.5375 41.7229 34.3771 41.2375C35.2167 40.7542 35.7667 38.75 35.375 35.4521C35.2889 34.7422 35.1687 34.0367 35.0188 33.3375ZM38.0417 32.5292C39.2438 38.0271 38.6125 42.4042 35.9417 43.9458C33.2708 45.4875 29.1646 43.8458 25.0042 40.0563C20.8438 43.8458 16.7375 45.4854 14.0667 43.9438C11.3958 42.4021 10.7646 38.0271 11.9646 32.5271C6.6021 30.8188 3.12918 28.0833 3.12918 25C3.12918 21.9167 6.6021 19.1813 11.9646 17.4729C10.7646 11.9729 11.3958 7.59792 14.0667 6.05626C16.7375 4.51459 20.8438 6.15417 25.0042 9.94376C29.1646 6.15417 33.2708 4.51459 35.9417 6.05626C38.6125 7.59792 39.2438 11.9729 38.0438 17.4729C43.4021 19.1813 46.875 21.9167 46.875 25C46.875 28.0833 43.4021 30.8208 38.0417 32.5292ZM22.7896 12.1563C22.2375 11.6583 21.6854 11.2021 21.1375 10.7917C18.4771 8.80209 16.4667 8.27709 15.6271 8.76251C14.7875 9.24584 14.2375 11.25 14.6292 14.55C14.7125 15.2292 14.8292 15.9354 14.9833 16.6646C16.5553 16.3203 18.1453 16.0643 19.7458 15.8979C20.7354 14.5375 21.7542 13.2854 22.7896 12.1563ZM30.2604 15.8979C31.8603 16.0642 33.4496 16.3202 35.0208 16.6646C35.1771 15.9354 35.2958 15.2271 35.375 14.55C35.7708 11.25 35.2188 9.24584 34.3792 8.76251C33.5396 8.27709 31.5292 8.80209 28.8688 10.7917C28.3208 11.2021 27.7688 11.6583 27.2146 12.1563C28.25 13.2854 29.2708 14.5375 30.2604 15.8979ZM26.1042 15.6375C25.7396 15.2 25.3729 14.775 25.0042 14.3688C24.6354 14.775 24.2688 15.1979 23.9042 15.6375C24.6374 15.6219 25.3709 15.6219 26.1042 15.6375ZM17.4458 30.6333C17.0658 30.0065 16.699 29.3716 16.3458 28.7292C16.1479 29.2646 15.9646 29.7917 15.7979 30.3167C16.3333 30.4313 16.8854 30.5375 17.4458 30.6333ZM21.4688 31.1208C23.8211 31.2954 26.1831 31.2954 28.5354 31.1208C29.8625 29.1705 31.0436 27.1246 32.0688 25C31.0442 22.875 29.8632 20.8291 28.5354 18.8792C26.1831 18.7044 23.8211 18.7044 21.4688 18.8792C20.1413 20.8293 18.9603 22.8752 17.9354 25C18.9604 27.1247 20.1414 29.1706 21.4688 31.1208ZM33.6604 21.2708C33.8583 20.7354 34.0417 20.2083 34.2083 19.6854C33.6622 19.5669 33.1134 19.4606 32.5625 19.3667C32.9418 19.9936 33.3079 20.6285 33.6604 21.2708ZM12.7729 20.4938C12.0646 20.7229 11.3938 20.9729 10.7646 21.2438C7.71251 22.5521 6.2521 24.0313 6.2521 25C6.2521 25.9688 7.71043 27.4479 10.7646 28.7563C11.3938 29.0271 12.0646 29.2771 12.7729 29.5063C13.2354 28.0479 13.8083 26.5354 14.4917 25C13.8351 23.5312 13.2612 22.0268 12.7729 20.4938ZM15.7938 19.6854C15.9625 20.2063 16.1458 20.7354 16.3438 21.2688C16.697 20.627 17.0637 19.9929 17.4438 19.3667C16.8813 19.4625 16.3292 19.5688 15.7938 19.6854ZM37.2333 29.5063C37.9417 29.2771 38.6125 29.0271 39.2417 28.7563C42.2917 27.4479 43.75 25.9688 43.75 25C43.75 24.0313 42.2917 22.5521 39.2375 21.2438C38.6083 20.9729 37.9354 20.7229 37.2271 20.4938C36.7688 21.9521 36.1938 23.4646 35.5104 25C36.1938 26.5354 36.7667 28.0479 37.2292 29.5063M34.2083 30.3167C34.0361 29.7837 33.8527 29.2544 33.6583 28.7292C33.3051 29.3715 32.9383 30.0064 32.5583 30.6333C33.1208 30.5375 33.6729 30.4313 34.2083 30.3167Z" fill="#104455"/>
</svg>
