<svg width="16" height="17" viewBox="0 0 16 17" fill="none" xmlns="http://www.w3.org/2000/svg">
<g id="fi-rr-flower" clip-path="url(#clip0_155_628)">
<path id="Vector" d="M8.00006 11.1668C7.29281 11.1668 6.61454 10.8859 6.11444 10.3858C5.61434 9.88566 5.33339 9.20738 5.33339 8.50014C5.33339 7.79289 5.61434 7.11462 6.11444 6.61452C6.61454 6.11442 7.29281 5.83347 8.00006 5.83347C8.7073 5.83347 9.38558 6.11442 9.88568 6.61452C10.3858 7.11462 10.6667 7.79289 10.6667 8.50014C10.6667 9.20738 10.3858 9.88566 9.88568 10.3858C9.38558 10.8859 8.7073 11.1668 8.00006 11.1668ZM8.00006 7.16681C7.64644 7.16681 7.3073 7.30728 7.05725 7.55733C6.8072 7.80738 6.66673 8.14652 6.66673 8.50014C6.66673 8.85376 6.8072 9.1929 7.05725 9.44295C7.3073 9.693 7.64644 9.83347 8.00006 9.83347C8.35368 9.83347 8.69282 9.693 8.94287 9.44295C9.19292 9.1929 9.33339 8.85376 9.33339 8.50014C9.33339 8.14652 9.19292 7.80738 8.94287 7.55733C8.69282 7.30728 8.35368 7.16681 8.00006 7.16681ZM8.00006 16.5001C7.27283 16.4994 6.56575 16.2612 5.98633 15.8217C5.40691 15.3822 4.98686 14.7656 4.79006 14.0655C4.08651 14.2208 3.35173 14.1475 2.69277 13.8561C2.0338 13.5648 1.48509 13.0706 1.12655 12.4457C0.768018 11.8207 0.6184 11.0976 0.699493 10.3817C0.780587 9.66573 1.08816 8.9944 1.57739 8.46547C-0.689275 6.12481 1.58339 2.06547 4.80006 2.89947C5.00755 2.21224 5.43076 1.61007 6.00708 1.18206C6.58339 0.754047 7.28219 0.522942 8.00006 0.522942C8.71793 0.522942 9.41672 0.754047 9.99304 1.18206C10.5694 1.61007 10.9926 2.21224 11.2001 2.89947C14.4667 2.0888 16.6667 6.10814 14.4194 8.49414C16.6914 10.8528 14.4267 14.7888 11.2101 14.0655C11.0133 14.7656 10.5932 15.3822 10.0138 15.8217C9.43437 16.2612 8.72728 16.4994 8.00006 16.5001ZM5.33339 12.5001C5.5102 12.5001 5.67977 12.5704 5.8048 12.6954C5.92982 12.8204 6.00006 12.99 6.00006 13.1668C6.00006 13.6972 6.21077 14.2059 6.58584 14.581C6.96092 14.9561 7.46963 15.1668 8.00006 15.1668C8.53049 15.1668 9.0392 14.9561 9.41427 14.581C9.78935 14.2059 10.0001 13.6972 10.0001 13.1668C10 13.0494 10.031 12.934 10.0898 12.8324C10.1487 12.7307 10.2334 12.6465 10.3353 12.5881C10.4372 12.5297 10.5527 12.4992 10.6701 12.4998C10.7876 12.5004 10.9028 12.532 11.0041 12.5915C13.3147 13.7081 15.2707 10.4701 13.0147 9.08547C12.9106 9.02725 12.8239 8.94231 12.7636 8.83943C12.7032 8.73654 12.6714 8.61942 12.6714 8.50014C12.6714 8.38086 12.7032 8.26374 12.7636 8.16085C12.8239 8.05796 12.9106 7.97303 13.0147 7.91481C15.2234 6.57547 13.3627 3.10214 11.0021 4.41214C10.9006 4.47121 10.7853 4.50242 10.6678 4.50262C10.5504 4.50281 10.435 4.47199 10.3333 4.41326C10.2316 4.35453 10.1473 4.26999 10.0887 4.16817C10.0302 4.06636 9.99962 3.9509 10.0001 3.83347C10.0001 3.30304 9.78935 2.79433 9.41427 2.41926C9.0392 2.04419 8.53049 1.83347 8.00006 1.83347C7.46963 1.83347 6.96092 2.04419 6.58584 2.41926C6.21077 2.79433 6.00006 3.30304 6.00006 3.83347C6.00029 3.95061 5.96965 4.06574 5.91124 4.16727C5.85282 4.2688 5.76868 4.35314 5.6673 4.41181C5.56591 4.47048 5.45086 4.5014 5.33372 4.50146C5.21659 4.50151 5.1015 4.47071 5.00006 4.41214C2.66673 3.10547 0.758725 6.55347 2.98539 7.88014C3.08948 7.93846 3.17614 8.02346 3.23646 8.1264C3.29678 8.22934 3.32857 8.3465 3.32857 8.46581C3.32857 8.58512 3.29678 8.70227 3.23646 8.80521C3.17614 8.90815 3.08948 8.99315 2.98539 9.05147C0.753392 10.4601 2.64273 13.7001 4.99606 12.5915C5.09838 12.5316 5.21483 12.5 5.33339 12.5001Z" fill="white"/>
</g>
<defs>
<clipPath id="clip0_155_628">
<rect width="16" height="16" fill="white" transform="translate(0 0.5)"/>
</clipPath>
</defs>
</svg>
