<svg width="50" height="50" viewBox="0 0 50 50" fill="none" xmlns="http://www.w3.org/2000/svg">
<g clip-path="url(#clip0_6_95)">
<path d="M38.2812 0H11.7188C5.24666 0 0 5.24666 0 11.7188V38.2812C0 44.7533 5.24666 50 11.7188 50H38.2812C44.7533 50 50 44.7533 50 38.2812V11.7188C50 5.24666 44.7533 0 38.2812 0Z" fill="#0A3442"/>
<path d="M43.6532 35.3911C43.4129 35.3914 43.1726 35.3481 42.9443 35.2613C42.4903 35.0887 42.1153 34.7557 41.8901 34.3253L41.8777 34.3015L41.8628 34.2793C40.614 32.4099 39.2698 30.594 37.9331 28.7884C37.3674 28.0243 36.8031 27.2621 36.248 26.4984L36.248 26.4984L36.2435 26.4923L35.4289 25.4064L35.0279 24.8719L34.6282 25.4074C34.0832 26.1376 33.537 26.8622 32.9928 27.5842C31.3111 29.8152 29.6487 32.0208 28.1003 34.2858L28.083 34.3112L28.0688 34.3385C27.8586 34.7456 27.5075 35.0624 27.081 35.2299C26.8853 35.3067 26.68 35.3497 26.4733 35.3587L34.3765 24.7564L34.6025 24.4532L34.3723 24.1532L27.0629 14.6276C27.2928 14.6291 27.5226 14.6685 27.7427 14.7457C28.198 14.9054 28.5842 15.2174 28.8361 15.6288L28.8427 15.6397L28.8499 15.6501C30.1147 17.4984 31.4787 19.2948 32.8593 21.113C33.4661 21.912 34.076 22.7153 34.6822 23.5291L35.0805 24.0638L35.4822 23.5318C36.0025 22.8428 36.5224 22.1604 37.0397 21.4815C38.5134 19.5471 39.966 17.6406 41.3451 15.6889L41.3638 15.6625L41.3789 15.6338C41.589 15.2358 41.9381 14.9289 42.3598 14.7715C42.5547 14.6988 42.7587 14.6604 42.9632 14.6562L40.4186 18.0307L43.6532 35.3911ZM43.6532 35.3911C43.0926 34.6418 42.5353 33.8963 41.9803 33.1539C40.0862 30.6204 38.2187 28.1225 36.3397 25.6301C36.1917 25.4884 36.0724 25.3193 35.9886 25.1319C35.8976 24.9283 35.8505 24.7077 35.8505 24.4847C35.8505 24.2616 35.8976 24.041 35.9886 23.8374C36.0736 23.6473 36.1952 23.4759 36.3463 23.333M43.6532 35.3911L36.3463 23.333M36.3463 23.333C37.4562 21.957 38.5184 20.5486 39.5874 19.1312C39.8635 18.7651 40.14 18.3984 40.418 18.0316L36.3463 23.333ZM6.63386 21.0758L6.63425 21.0744C8.42665 14.7026 15.6877 12.1159 20.6458 16.0109L20.6459 16.011C23.4252 18.1935 24.2391 21.2523 24.1724 24.8373H7.28242H6.80245L6.78284 25.3169C6.63663 28.8925 7.85391 31.8275 10.0081 33.587C12.1689 35.3519 15.1941 35.8697 18.5175 34.76L18.5176 34.7601L18.5276 34.7565C19.6398 34.3586 20.6355 33.69 21.4247 32.8111C22.2101 31.9363 22.7664 30.8807 23.0441 29.7385C23.1965 29.2541 23.3549 29.1078 23.4677 29.0554C23.5536 29.0155 23.6865 28.9944 23.9084 29.0278C23.7088 30.1146 23.2944 31.1524 22.6878 32.0795C22.0011 33.129 21.0861 34.0095 20.0112 34.6553C18.2166 35.6344 16.1587 36.022 14.1308 35.7627C12.107 35.504 10.2163 34.6142 8.72717 33.22C7.26077 31.5639 6.37261 29.4759 6.19676 27.2708C6.19419 27.0338 6.14892 26.8107 6.10227 26.6213C6.07762 26.5212 6.0561 26.4421 6.03646 26.3698C6.01573 26.2935 5.99709 26.2249 5.97906 26.1476C5.97248 25.5544 5.96905 24.9612 5.96877 24.3679C6.05294 23.962 6.12285 23.5627 6.19197 23.168C6.31593 22.4601 6.43733 21.7668 6.63386 21.0758ZM6.85769 24.0746L6.99632 24.3494H7.3041H23.0182H23.528L23.5181 23.8396C23.4163 18.6327 20.1001 14.7955 15.5521 14.7596C13.0754 14.7255 10.9293 15.6286 9.37808 17.2378C7.82965 18.8441 6.90093 21.125 6.79356 23.8077L6.78838 23.9372L6.84676 24.0529L6.85769 24.0746Z" fill="#3AD3CD" fill-opacity="0.4" stroke="#3AD3CD"/>
</g>
<defs>
<clipPath id="clip0_6_95">
<rect width="50" height="50" fill="white"/>
</clipPath>
</defs>
</svg>
