<svg width="50" height="50" viewBox="0 0 50 50" fill="none" xmlns="http://www.w3.org/2000/svg">
<g clip-path="url(#clip0_6_93)">
<path fill-rule="evenodd" clip-rule="evenodd" d="M26.23 0.540015C26.0738 0.369231 25.8838 0.232838 25.6721 0.139523C25.4603 0.0462084 25.2314 -0.00198364 25 -0.00198364C24.7686 -0.00198364 24.5397 0.0462084 24.3279 0.139523C24.1162 0.232838 23.9262 0.369231 23.77 0.540015L15.0033 10.1067C12.0653 13.3109 10.3615 17.4549 10.196 21.7991C10.0305 26.1433 11.4142 30.4049 14.1 33.8233L23.3333 45.5767V50H26.6667V45.5767L35.9 33.8233C38.5854 30.4056 39.9691 26.1448 39.8042 21.8014C39.6394 17.458 37.9367 13.3144 35 10.11L26.23 0.540015ZM26.6667 10C26.6667 9.55799 26.4911 9.13406 26.1785 8.8215C25.8659 8.50894 25.442 8.33335 25 8.33335C24.558 8.33335 24.134 8.50894 23.8215 8.8215C23.5089 9.13406 23.3333 9.55799 23.3333 10V35C23.3333 35.442 23.5089 35.866 23.8215 36.1785C24.134 36.4911 24.558 36.6667 25 36.6667C25.442 36.6667 25.8659 36.4911 26.1785 36.1785C26.4911 35.866 26.6667 35.442 26.6667 35V10Z" fill="#104455"/>
</g>
<defs>
<clipPath id="clip0_6_93">
<rect width="50" height="50" fill="white"/>
</clipPath>
</defs>
</svg>
